<?xml version="1.0" standalone="no"?>
<!DOCTYPE svg PUBLIC "-//W3C//DTD SVG 20010904//EN"
 "http://www.w3.org/TR/2001/REC-SVG-20010904/DTD/svg10.dtd">
<svg version="1.0" xmlns="http://www.w3.org/2000/svg"
 width="500.000000pt" height="500.000000pt" viewBox="0 0 500.000000 500.000000"
 preserveAspectRatio="xMidYMid meet" >

<g transform="translate(0.000000,500.000000) scale(0.100000,-0.100000)"
fill="#fff" stroke="none">
<path d="M535 4740 c-53 -21 -50 133 -50 -2240 0 -2113 1 -2199 18 -2218 35
-39 91 -36 124 7 8 11 12 64 13 169 l0 152 524 0 525 0 3 -155 c3 -143 5 -156
25 -176 31 -32 80 -30 110 5 l23 27 0 2189 0 2189 -23 27 c-30 35 -79 37 -110
5 -20 -20 -22 -33 -25 -176 l-3 -155 -525 0 -524 0 0 153 c-1 159 -4 173 -47
195 -25 14 -30 14 -58 2z m1155 -1035 l0 -525 -525 0 -525 0 0 525 0 525 525
0 525 0 0 -525z m0 -1205 l0 -530 -525 0 -525 0 0 530 0 530 525 0 525 0 0
-530z m0 -1205 l0 -525 -525 0 -525 0 0 525 0 525 525 0 525 0 0 -525z"/>
<path d="M2244 4740 c-57 -23 -54 22 -54 -926 0 -866 0 -871 21 -898 l20 -26
1120 0 c1095 0 1119 0 1138 19 11 11 23 35 26 53 3 18 5 417 3 885 l-3 852
-23 23 -23 23 -1102 2 c-609 1 -1112 -2 -1123 -7z m2116 -925 l0 -775 -1005 0
-1005 0 0 775 0 775 1005 0 1005 0 0 -775z"/>
<path d="M2805 4445 l-25 -24 0 -601 c0 -373 4 -608 10 -620 12 -22 64 -42 88
-33 45 18 1019 586 1035 604 23 29 21 63 -5 93 -32 34 -1027 606 -1056 606
-12 0 -34 -11 -47 -25z m515 -411 c195 -113 359 -209 363 -213 6 -6 -731 -441
-748 -441 -3 0 -5 196 -5 436 0 407 1 436 17 430 9 -4 177 -99 373 -212z"/>
<path d="M2219 2551 l-29 -29 0 -561 0 -560 24 -28 24 -28 305 -5 305 -5 -204
-489 c-112 -269 -204 -501 -204 -516 0 -58 56 -93 108 -66 23 12 56 83 248
542 172 412 224 529 238 529 14 0 64 -113 231 -515 118 -283 218 -522 223
-530 5 -8 21 -21 36 -28 48 -24 106 13 106 67 0 11 -90 238 -201 503 -110 266
-203 488 -206 495 -4 9 69 13 301 15 303 3 306 3 328 26 22 22 23 30 28 237
l5 215 210 -121 c356 -206 351 -204 400 -158 19 19 20 33 20 420 l0 401 -29
25 c-21 18 -37 23 -55 20 -14 -3 -143 -73 -286 -156 l-260 -150 -5 214 c-5
207 -6 215 -28 237 l-23 23 -790 3 -790 2 -30 -29z m411 -591 l0 -460 -140 0
-140 0 0 460 0 460 140 0 140 0 0 -460z m1090 0 l0 -460 -470 0 -470 0 0 460
0 460 470 0 470 0 0 -460z m640 -1 l0 -231 -68 39 c-241 136 -331 189 -332
193 0 6 381 228 393 229 4 1 7 -103 7 -230z"/>
</g>
</svg>
